<!--?xml version="1.0" standalone="no"?-->              <svg id="sw-js-blob-svg" viewBox="0 0 100 100" xmlns="http://www.w3.org/2000/svg" version="1.1">                    <defs>                         <linearGradient id="sw-gradient" x1="0" x2="1" y1="1" y2="0">                            <stop id="stop1" stop-color="rgba(242, 247, 53, 1)" offset="0%"></stop>                            <stop id="stop2" stop-color="rgba(242, 247, 53, 1)" offset="100%"></stop>                        </linearGradient>                    </defs>                <path fill="url(#sw-gradient)" d="M26.8,-34.8C34.7,-31.1,41.1,-23.3,43.6,-14.4C46.1,-5.6,44.7,4.2,40.7,12.1C36.6,20.1,30,26,22.7,30.9C15.5,35.7,7.8,39.3,-0.3,39.7C-8.3,40,-16.6,37.1,-24.1,32.4C-31.6,27.7,-38.4,21.2,-40.4,13.5C-42.4,5.8,-39.6,-3.1,-36.7,-11.8C-33.7,-20.5,-30.5,-29.1,-24.4,-33.4C-18.2,-37.7,-9.1,-37.7,0.2,-37.9C9.4,-38.1,18.9,-38.5,26.8,-34.8Z" width="100%" height="100%" transform="translate(50 50)" stroke-width="0" style="transition: all 0.3s ease 0s;" stroke="url(#sw-gradient)"></path>              </svg>